REM DIRINDEX 1\2,1\3\7,1\3\8,1\4\9,1\4\10,1\4\11,1\5\12,1\5\13,1\5\14,1\6\15,1\6\16,1\6\17
REM DIRNAME "folder01","folder02","folder03","folder04","folder05","folder06","folder07","folder08","folder09","folder10","folder11","folder12","folder13","folder14","folder15","folder16","folder17"
TITLE ""
FILE "2Q_t_1135-1152.mp3" MP3
  TRACK 01 AUDIO
    TITLE "0:"
    INDEX 01 00:00:00
  TRACK 02 AUDIO
    TITLE "7:cjc174_4063"
    INDEX 01 00:00:08
  TRACK 03 AUDIO
    TITLE "0:"
    INDEX 01 00:01:45
  TRACK 04 AUDIO
    TITLE "8:cjc174_4064"
    INDEX 01 00:02:17
  TRACK 05 AUDIO
    TITLE "0:"
    INDEX 01 00:04:20
  TRACK 06 AUDIO
    TITLE "7:cjc174_4065"
    INDEX 01 00:04:67
  TRACK 07 AUDIO
    TITLE "0:"
    INDEX 01 00:06:13
  TRACK 08 AUDIO
    TITLE "8:cjc174_4066"
    INDEX 01 00:06:60
  TRACK 09 AUDIO
    TITLE "0:"
    INDEX 01 00:09:01
  TRACK 10 AUDIO
    TITLE "7:cjc174_4067"
    INDEX 01 00:09:50
  TRACK 11 AUDIO
    TITLE "0:"
    INDEX 01 00:11:04
  TRACK 12 AUDIO
    TITLE "8:cjc174_4068"
    INDEX 01 00:11:63
  TRACK 13 AUDIO
    TITLE "0:"
    INDEX 01 00:13:72
  TRACK 14 AUDIO
    TITLE "7:cjc174_4069"
    INDEX 01 00:14:42
  TRACK 15 AUDIO
    TITLE "0:"
    INDEX 01 00:16:00
  TRACK 16 AUDIO
    TITLE "8:cjc174_4070"
    INDEX 01 00:16:56
  TRACK 17 AUDIO
    TITLE "0:"
    INDEX 01 00:18:57
  TRACK 18 AUDIO
    TITLE "7:cjc174_4071"
    INDEX 01 00:19:27
  TRACK 19 AUDIO
    TITLE "0:"
    INDEX 01 00:20:29
  TRACK 20 AUDIO
    TITLE "8:cjc174_4072"
    INDEX 01 00:21:09
  TRACK 21 AUDIO
    TITLE "0:"
    INDEX 01 00:22:06
  TRACK 22 AUDIO
    TITLE "7:cjc174_4073"
    INDEX 01 00:22:53
  TRACK 23 AUDIO
    TITLE "0:"
    INDEX 01 00:23:66
  TRACK 24 AUDIO
    TITLE "8:cjc174_4074"
    INDEX 01 00:24:44
  TRACK 25 AUDIO
    TITLE "0:"
    INDEX 01 00:26:21
  TRACK 26 AUDIO
    TITLE "7:cjc174_4075"
    INDEX 01 00:26:68
  TRACK 27 AUDIO
    TITLE "0:"
    INDEX 01 00:28:03
  TRACK 28 AUDIO
    TITLE "8:cjc174_4076"
    INDEX 01 00:28:50
  TRACK 29 AUDIO
    TITLE "0:"
    INDEX 01 00:30:35
  TRACK 30 AUDIO
    TITLE "7:cjc174_4077"
    INDEX 01 00:31:07
  TRACK 31 AUDIO
    TITLE "0:"
    INDEX 01 00:32:14
  TRACK 32 AUDIO
    TITLE "8:cjc174_4078"
    INDEX 01 00:32:63
  TRACK 33 AUDIO
    TITLE "0:"
    INDEX 01 00:33:74
  TRACK 34 AUDIO
    TITLE "7:cjc174_4079"
    INDEX 01 00:34:44
  TRACK 35 AUDIO
    TITLE "0:"
    INDEX 01 00:36:00
  TRACK 36 AUDIO
    TITLE "8:cjc174_4080"
    INDEX 01 00:36:47
  TRACK 37 AUDIO
    TITLE "0:"
    INDEX 01 00:38:58
  TRACK 38 AUDIO
    TITLE "7:cjc174_4081"
    INDEX 01 00:39:28
  TRACK 39 AUDIO
    TITLE "0:"
    INDEX 01 00:40:73
  TRACK 40 AUDIO
    TITLE "8:cjc174_4082"
    INDEX 01 00:41:50
  TRACK 41 AUDIO
    TITLE "0:"
    INDEX 01 00:45:19
  TRACK 42 AUDIO
    TITLE "7:cjc174_4083"
    INDEX 01 00:45:64
  TRACK 43 AUDIO
    TITLE "0:"
    INDEX 01 00:47:04
  TRACK 44 AUDIO
    TITLE "8:cjc174_4084"
    INDEX 01 00:47:55
  TRACK 45 AUDIO
    TITLE "0:"
    INDEX 01 00:51:10
  TRACK 46 AUDIO
    TITLE "7:cjc174_4085"
    INDEX 01 00:51:55
  TRACK 47 AUDIO
    TITLE "0:"
    INDEX 01 00:52:62
  TRACK 48 AUDIO
    TITLE "8:cjc174_4086"
    INDEX 01 00:53:32
  TRACK 49 AUDIO
    TITLE "0:"
    INDEX 01 00:55:49
  TRACK 50 AUDIO
    TITLE "7:cjc174_4087"
    INDEX 01 00:56:19
  TRACK 51 AUDIO
    TITLE "0:"
    INDEX 01 00:57:30
  TRACK 52 AUDIO
    TITLE "8:cjc174_4088"
    INDEX 01 00:58:02
  TRACK 53 AUDIO
    TITLE "0:"
    INDEX 01 01:00:05
  TRACK 54 AUDIO
    TITLE "7:cjc174_4089"
    INDEX 01 01:00:50
  TRACK 55 AUDIO
    TITLE "0:"
    INDEX 01 01:01:67
  TRACK 56 AUDIO
    TITLE "8:cjc174_4090"
    INDEX 01 01:02:45
  TRACK 57 AUDIO
    TITLE "0:"
    INDEX 01 01:04:26
  TRACK 58 AUDIO
    TITLE "7:cjc174_4091"
    INDEX 01 01:04:71
  TRACK 59 AUDIO
    TITLE "0:"
    INDEX 01 01:06:19
  TRACK 60 AUDIO
    TITLE "8:cjc174_4092"
    INDEX 01 01:06:72
  TRACK 61 AUDIO
    TITLE "0:"
    INDEX 01 01:10:48
  TRACK 62 AUDIO
    TITLE "7:cjc174_4093"
    INDEX 01 01:11:18
  TRACK 63 AUDIO
    TITLE "0:"
    INDEX 01 01:12:27
  TRACK 64 AUDIO
    TITLE "8:cjc174_4094"
    INDEX 01 01:13:01
  TRACK 65 AUDIO
    TITLE "0:"
    INDEX 01 01:15:65
  TRACK 66 AUDIO
    TITLE "7:cjc174_4095"
    INDEX 01 01:16:37
  TRACK 67 AUDIO
    TITLE "0:"
    INDEX 01 01:17:52
  TRACK 68 AUDIO
    TITLE "8:cjc174_4096"
    INDEX 01 01:18:24
  TRACK 69 AUDIO
    TITLE "0:"
    INDEX 01 01:19:27
  TRACK 70 AUDIO
    TITLE "7:cjc174_4097"
    INDEX 01 01:20:01
  TRACK 71 AUDIO
    TITLE "0:"
    INDEX 01 01:21:09
  TRACK 72 AUDIO
    TITLE "8:cjc174_4098"
    INDEX 01 01:21:56
  TRACK 73 AUDIO
    TITLE "0:"
    INDEX 01 01:24:27
